# xmcd
#
# Track frame offsets:
#	150
#	16139
#	31925
#	42749
#	54468
#	71061
#	81295
#	100322
#	117671
#	128155
#	144034
#	155556
#	168300
#	180821
#	200554
#	208630
#	220379
#	233252
#	248851
#	261963
#	275123
#	288206
#	298986
#	316504
#	327387
#	346166
#
# Disc length: 4856 seconds
#
# Revision: 2
# Processed by: cddbd v1.5.2PL0 Copyright (c) Steve Scherf et al.
# Submitted via: EasyCDDAExtractor 2011.0.0.0
#
DISCID=8412f61a
DTITLE=Brett Baker - Stealin' The Covers III
DYEAR=1900
DGENRE=Country
TTITLE0=That'd Be Alright
TTITLE1=Forever And Ever Amen
TTITLE2=Above And Beyond
TTITLE3=Fame And Fortune
TTITLE4=No Getting Over Me
TTITLE5=Baby What You Want Me To Do
TTITLE6=I Can Help
TTITLE7=The Losing Side Of Me
TTITLE8=Is Anybody Going To San Antone
TTITLE9=Give It Away
TTITLE10=Sweet Caroline
TTITLE11=If You Love Me Let Me Know
TTITLE12=I Really Don't Want To Know
TTITLE13=Neon Moon
TTITLE14=Finders Keepers
TTITLE15=It Only Hurts Me When I Cry
TTITLE16=Wasted Days And Wasted Nights
TTITLE17=Please Please Baby
TTITLE18=The Image Of Me
TTITLE19=Moody Blue
TTITLE20=Streets Of Bakersfield
TTITLE21=Think Of Me When You're Lonely
TTITLE22=Just Pretend
TTITLE23=What A Wonderful Life
TTITLE24=Faded Love
TTITLE25=To Make You Feel My Love
EXTD=
EXTT0=
EXTT1=
EXTT2=
EXTT3=
EXTT4=
EXTT5=
EXTT6=
EXTT7=
EXTT8=
EXTT9=
EXTT10=
EXTT11=
EXTT12=
EXTT13=
EXTT14=
EXTT15=
EXTT16=
EXTT17=
EXTT18=
EXTT19=
EXTT20=
EXTT21=
EXTT22=
EXTT23=
EXTT24=
EXTT25=
PLAYORDER=
